<svg width="14" height="16" viewBox="0 0 14 16" fill="none" xmlns="http://www.w3.org/2000/svg">
<path d="M12.9926 3.14286L8.00717 0.264566C7.39585 -0.0881886 6.60427 -0.0881886 5.99259 0.264566L1.00747 3.14286C0.385881 3.50158 0 4.17002 0 4.88744V10.644C0 11.3614 0.38612 12.03 1.00723 12.3888L5.99265 15.267C6.29843 15.4436 6.64677 15.5369 6.99988 15.5369C7.353 15.5369 7.70133 15.4435 8.00711 15.267L12.9925 12.3888C13.6139 12.03 13.9998 11.3616 13.9998 10.644L14 4.88774C14.0001 4.17008 13.6141 3.50152 12.9928 3.14292L12.9926 3.14286ZM12.8301 10.6444C12.8301 10.9452 12.6682 11.2257 12.4077 11.3761L7.42232 14.2542C7.16573 14.4025 6.83406 14.4025 6.57746 14.2542L1.59204 11.3761C1.33149 11.2257 1.16969 10.9452 1.16969 10.6444V4.88783C1.16969 4.58706 1.3315 4.30656 1.59204 4.15629L6.57717 1.27788C6.70552 1.20397 6.85159 1.16469 6.99964 1.16469C7.14768 1.16469 7.294 1.20374 7.42199 1.27788L12.4074 4.15629C12.668 4.30656 12.8295 4.58694 12.8295 4.88783V10.6444H12.8301ZM9.54189 5.06301L3.74322 9.54317C3.48757 9.74077 3.44036 10.1081 3.63795 10.3636C3.75313 10.5129 3.92625 10.591 4.10122 10.591C4.22607 10.591 4.35186 10.5512 4.45842 10.4689L10.2571 5.98875C10.5127 5.79115 10.5599 5.42381 10.3624 5.16828C10.1652 4.91286 9.79753 4.86543 9.54201 5.06301L9.54189 5.06301ZM5.76992 6.98385C6.2051 6.98385 6.61453 6.81423 6.92228 6.50659C7.23015 6.19893 7.39954 5.78974 7.39954 5.35456C7.39954 4.91937 7.23004 4.50994 6.9224 4.20219C6.61453 3.89433 6.20546 3.72493 5.77004 3.72493C5.33462 3.72493 4.92555 3.89455 4.61768 4.20208C4.30981 4.50962 4.14053 4.91901 4.14053 5.35444C4.14053 5.78986 4.31004 6.19905 4.61744 6.50656C4.92543 6.81422 5.3345 6.98382 5.76992 6.98382V6.98385ZM5.44477 5.02932C5.53162 4.94247 5.64715 4.89467 5.7698 4.89467C5.89245 4.89467 6.00797 4.94247 6.09471 5.02955C6.18156 5.1164 6.22936 5.23158 6.22936 5.35422C6.22936 5.47686 6.18156 5.59239 6.09448 5.67913C5.92113 5.85283 5.61883 5.85306 5.44457 5.67902C5.35772 5.59228 5.31004 5.47699 5.31004 5.35434C5.31015 5.23159 5.35804 5.11618 5.44477 5.02932ZM8.22992 8.54821C7.79474 8.54821 7.38531 8.71783 7.07756 9.02547C6.76969 9.33313 6.6003 9.74232 6.6003 10.1775C6.6003 10.6127 6.7698 11.0221 7.07744 11.3299C7.38531 11.6377 7.79438 11.8071 8.22992 11.8071C8.6651 11.8071 9.07441 11.6375 9.38204 11.3299C9.68991 11.0222 9.85919 10.613 9.85919 10.1777C9.85919 9.74232 9.68968 9.33313 9.38228 9.02562C9.07441 8.71787 8.66534 8.54824 8.22992 8.54824V8.54821ZM8.55483 10.5025C8.38113 10.6762 8.07813 10.6762 7.90492 10.5024C7.81807 10.4155 7.77027 10.3004 7.77027 10.1777C7.77027 10.0551 7.81807 9.93955 7.90515 9.8528C7.99201 9.76595 8.10741 9.71816 8.23006 9.71816C8.35259 9.71816 8.468 9.76596 8.55497 9.85304C8.64183 9.93977 8.6895 10.0551 8.6895 10.1777C8.68939 10.3003 8.64156 10.4158 8.55483 10.5025Z" fill="#FFBA10"/>
</svg>
