<svg width="14" height="20" viewBox="0 0 14 20" fill="none" xmlns="http://www.w3.org/2000/svg">
<path d="M5.98522 7.05469C5.76375 8.57179 5.06211 9.97662 3.984 11.0613C2.90582 12.1457 1.50878 12.8522 0 13.0757C1.50878 13.2978 2.90616 14.0034 3.98427 15.0874C5.06245 16.1715 5.76433 17.5761 5.98529 19.0929C6.20756 17.5761 6.91025 16.1715 7.98898 15.0876C9.06791 14.004 10.4653 13.2984 11.9743 13.0757C10.4653 12.8518 9.06791 12.1453 7.98925 11.0612C6.91086 9.97676 6.20816 8.57193 5.98536 7.05483L5.98522 7.05469Z" fill="#FFBA10"/>
<path d="M10.4672 0C10.3351 0.892293 9.91907 1.71849 9.28127 2.35629C8.64347 2.9941 7.81716 3.41004 6.9248 3.54216C7.81716 3.67464 8.64341 4.09028 9.28127 4.72803C9.91909 5.36614 10.3351 6.19203 10.4672 7.08433C10.599 6.19341 11.0134 5.36852 11.6495 4.73079C12.2853 4.09302 13.1095 3.67635 14.0002 3.54225C13.1095 3.40809 12.2853 2.99144 11.6495 2.3537C11.0133 1.71593 10.599 0.891085 10.4672 0.000172496V0Z" fill="#FFBA10"/>
<path d="M1.3485 6.26102C1.39974 5.92089 1.55886 5.60639 1.80259 5.36372C2.04599 5.12101 2.36119 4.96292 2.70168 4.91269C2.36052 4.86246 2.04498 4.70369 1.80121 4.45997C1.55748 4.21626 1.39869 3.90074 1.34846 3.55957C1.29992 3.90037 1.14215 4.21656 0.89909 4.46032C0.65603 4.70437 0.340822 4.86315 0 4.9127C0.340149 4.96225 0.655013 5.12034 0.89771 5.36339C1.14077 5.6061 1.29893 5.92092 1.3485 6.26102Z" fill="#FFBA10"/>
</svg>
