<svg width="14" height="14" viewBox="0 0 14 14" fill="none" xmlns="http://www.w3.org/2000/svg">
<path fill-rule="evenodd" clip-rule="evenodd" d="M11.8016 10.4966L14 12.6798L12.6706 14L10.4581 11.8028C7.67386 13.8246 3.78975 13.3666 1.5596 10.7536C-0.670547 8.14057 -0.488892 4.26044 1.97578 1.86418C4.44044 -0.53209 8.35058 -0.630192 10.934 1.63942C13.5173 3.90904 13.896 7.77511 11.8016 10.4966ZM6.56396 1.87118C3.96964 1.87118 1.86653 3.95974 1.86653 6.53611C1.86653 9.11248 3.96964 11.201 6.56396 11.201C9.15828 11.201 11.2614 9.11248 11.2614 6.53611C11.2614 3.95974 9.15828 1.87118 6.56396 1.87118Z" fill="#FFC83D"/>
</svg>
