<svg width="14" height="9" viewBox="0 0 14 9" fill="none" xmlns="http://www.w3.org/2000/svg">
<path d="M1.2459 8.28395C0.960803 8.56904 0.49892 8.56904 0.213823 8.28395C-0.0712744 7.99885 -0.0712744 7.53696 0.213823 7.25186L4.85087 2.61479C5.11261 2.35347 5.5238 2.33203 5.80977 2.55084L8.91038 4.61354L11.3852 1.70055L9.42526 1.96282C9.02693 2.01487 8.66183 1.7339 8.60978 1.33557C8.55816 0.937232 8.8387 0.572129 9.23703 0.52008L13.0349 0.0119925C13.2418 -0.0259292 13.4634 0.0256959 13.6365 0.172392C13.8111 0.320364 13.8988 0.532818 13.8942 0.744847L13.9997 4.55469C14.0107 4.95623 13.6941 5.29071 13.293 5.30167C12.8915 5.31261 12.557 4.99607 12.546 4.59442L12.4922 2.64634L9.60395 6.04637C9.36909 6.32639 8.95609 6.39171 8.6441 6.18521L5.46109 4.06772L1.24527 8.28356L1.2459 8.28395Z" fill="#FFBA10"/>
</svg>
